<svg width="51" height="50" viewBox="0 0 51 50" fill="none" xmlns="http://www.w3.org/2000/svg">
<path d="M36.1666 27.3542V35.0563H31.7021V27.8688C31.7021 26.0646 31.0562 24.8334 29.4396 24.8334C28.2062 24.8334 27.4708 25.6625 27.1479 26.4667C27.0312 26.7542 27 27.1542 27 27.5542V35.0563H22.5333C22.5333 35.0563 22.5937 22.8854 22.5333 21.625H27V23.5271L26.9708 23.5709H27V23.5271C27.5937 22.6104 28.6521 21.3084 31.025 21.3084C33.9625 21.3084 36.1666 23.2292 36.1666 27.3542ZM17.8604 15.1479C16.3333 15.1479 15.3333 16.1521 15.3333 17.4688C15.3333 18.7604 16.3041 19.7917 17.8021 19.7917H17.8312C19.3896 19.7917 20.3583 18.7584 20.3583 17.4688C20.3291 16.1521 19.3896 15.1479 17.8604 15.1479ZM15.5979 35.0563H20.0646V21.625H15.5979V35.0563Z" fill="white"/>
<path d="M13.25 8.33317C12.1449 8.33317 11.0851 8.77216 10.3037 9.55356C9.5223 10.335 9.08332 11.3948 9.08332 12.4998V37.4998C9.08332 38.6049 9.5223 39.6647 10.3037 40.4461C11.0851 41.2275 12.1449 41.6665 13.25 41.6665H38.25C39.3551 41.6665 40.4149 41.2275 41.1963 40.4461C41.9777 39.6647 42.4167 38.6049 42.4167 37.4998V12.4998C42.4167 11.3948 41.9777 10.335 41.1963 9.55356C40.4149 8.77216 39.3551 8.33317 38.25 8.33317H13.25ZM13.25 4.1665H38.25C40.4601 4.1665 42.5797 5.04448 44.1425 6.60728C45.7053 8.17008 46.5833 10.2897 46.5833 12.4998V37.4998C46.5833 39.71 45.7053 41.8296 44.1425 43.3924C42.5797 44.9552 40.4601 45.8332 38.25 45.8332H13.25C11.0398 45.8332 8.92023 44.9552 7.35743 43.3924C5.79462 41.8296 4.91665 39.71 4.91665 37.4998V12.4998C4.91665 10.2897 5.79462 8.17008 7.35743 6.60728C8.92023 5.04448 11.0398 4.1665 13.25 4.1665Z" fill="white"/>
</svg>
