<svg width="45" height="44" viewBox="0 0 45 44" fill="none" xmlns="http://www.w3.org/2000/svg">
<path d="M6.58331 0.125C3.13605 0.125 0.333313 2.92773 0.333313 6.375V37.625C0.333313 41.0723 3.13605 43.875 6.58331 43.875H37.8333C41.2806 43.875 44.0833 41.0723 44.0833 37.625V6.375C44.0833 2.92773 41.2806 0.125 37.8333 0.125H6.58331ZM35.597 8.32812L25.4603 19.9102L37.3841 35.6719H28.0482L20.7435 26.1113L12.3743 35.6719H7.73566L18.5755 23.2793L7.13995 8.32812H16.7103L23.3216 17.0684L30.9583 8.32812H35.597ZM31.9056 32.8984L15.3138 10.9551H12.5501L29.3275 32.8984H31.8958H31.9056Z" fill="white"/>
</svg>
